<?xml version="1.0" encoding="utf-8"?>
<!-- Generator: Adobe Illustrator 26.0.1, SVG Export Plug-In . SVG Version: 6.00 Build 0)  -->
<svg version="1.1" id="Camada_1" xmlns="http://www.w3.org/2000/svg" xmlns:xlink="http://www.w3.org/1999/xlink" x="0px" y="0px"
	 viewBox="0 0 800 800" style="enable-background:new 0 0 800 800;" xml:space="preserve">
<style type="text/css">
	.st0{fill:#FFFFFF;}
	.st1{fill:#E52421;}
</style>
<g>
	<path class="st0" d="M139.79,454.32c-10.4,0-19.49-0.82-27.27-2.45s-13.77-3.61-17.99-5.93c-4.22-2.32-7.57-5.14-10.05-8.44
		c-2.48-3.31-4.08-6.3-4.78-8.96c-0.7-2.66-1.05-5.5-1.05-8.51v-1.42h34.16c0.75,10.14,8.13,15.21,28.09,15.21h7.6
		c6.56,0,9.34-0.28,13.65-0.84s7.45-1.35,9.42-2.39c1.97-1.03,3.28-2.08,3.94-3.16c0.66-1.07,0.98-2.34,0.98-3.8
		c0-2.06-0.56-3.7-1.69-4.9c-1.12-1.2-3.75-2.26-7.87-3.16c-4.12-0.9-10.07-1.44-17.85-1.61l-10.3-0.22l-7.69-0.16
		c-34.02-0.86-51.02-10.23-51.02-28.11v-1.16c0-3.09,0.42-5.95,1.27-8.57c0.84-2.62,2.53-5.24,5.06-7.86
		c2.53-2.62,5.83-4.83,9.91-6.64c4.08-1.81,9.58-3.29,16.52-4.45c6.93-1.16,14.99-1.74,24.18-1.74h9.7c9.56,0,17.99,0.6,25.3,1.81
		c7.31,1.2,13.14,2.75,17.5,4.64s7.92,4.21,10.68,6.96c2.76,2.75,4.66,5.48,5.69,8.19c1.03,2.71,1.55,5.61,1.55,8.7v1.29h-34.02
		c-0.19-1.03-0.45-1.91-0.77-2.64c-0.33-0.73-1.1-1.7-2.32-2.9c-1.22-1.2-2.81-2.19-4.78-2.97c-1.97-0.77-4.9-1.46-8.79-2.06
		s-6.86-0.9-12.02-0.9h-4.88c-7.87,0-12.83,0.45-17.04,1.35c-4.22,0.9-6.77,1.85-7.66,2.84c-0.89,0.99-1.34,2.34-1.34,4.06
		c0,1.63,0.49,2.97,1.48,4c0.98,1.03,3.33,1.98,7.03,2.84c3.7,0.86,8.93,1.33,15.67,1.42l7.7,0.11l9.87,0.15
		c19.49,0.34,33.57,2.77,42.24,7.28c8.67,4.51,13,11.58,13,21.21v1.8c0,3.52-0.42,6.68-1.27,9.48c-0.84,2.79-2.58,5.65-5.2,8.57
		c-2.62,2.92-6.11,5.37-10.47,7.35s-10.31,3.59-17.85,4.83c-7.54,1.25-16.38,1.87-26.5,1.87L139.79,454.32L139.79,454.32z"/>
	<path class="st0" d="M223.42,356.81h32.68v34.86h70.12v-34.86h32.67v95.7h-32.67v-37.69h-70.12v37.69h-32.68V356.81z"/>
	<polygon class="st0" points="78.65,324.92 78.65,350.51 535.97,349.77 535.97,452.64 569,452.64 569,349.84 700.57,349.84 
		700.57,321.66 	"/>
	<polygon class="st0" points="699.6,357.34 584.43,357.34 584.43,379.23 652.28,379.23 634.5,393.5 654.15,409.96 699.6,374.64 	"/>
	<path class="st1" d="M628.83,429.63l21.75-16.9c-7.04-4.83-13.66-10.41-19.85-16.2l-47.41,38.06v17.44h117.25v-22.4H628.83z"/>
</g>
<g>
	<path class="st0" d="M444.95,377.24c0.8-0.01,3.25,0,4.42,0.03c4.45,0.13,8.49,0.52,12.16,1.15l20.97-20.97
		c-2.74-0.63-5.68-1.2-8.86-1.7c-7.4-1.16-15.65-1.74-24.74-1.74h-4.45c-9.09,0-17.38,0.58-24.88,1.74
		c-3.19,0.49-6.14,1.06-8.88,1.68l20.88,20.88C435.57,377.69,440.03,377.33,444.95,377.24z"/>
	<path class="st0" d="M412.82,420.93c-2.81-2.75-4.8-5.5-5.97-8.25s-1.76-5.67-1.76-8.77v-1.55c0-8.8,3.9-15.29,11.68-19.47
		l-20.6-20.6c-3.13,1.47-5.97,3.13-8.51,5c-3.75,2.75-6.68,5.5-8.79,8.25c-2.11,2.75-3.79,5.78-5.06,9.09
		c-1.27,3.31-2.08,6.23-2.46,8.77c-0.38,2.54-0.56,5.22-0.56,8.06v3.87c0,2.75,0.19,5.41,0.56,7.99c0.38,2.58,1.2,5.52,2.46,8.83
		s2.95,6.36,5.06,9.15c2.11,2.79,5.06,5.59,8.86,8.38c2.37,1.74,5,3.3,7.82,4.71l20.79-20.79
		C414.99,422.78,413.8,421.89,412.82,420.93z"/>
	<path class="st0" d="M448.82,429.92c-0.99,0.02-2.71,0.03-3.35,0.02c-5.48-0.08-10.4-0.53-14.76-1.34l-20.93,20.93
		c2.98,0.73,6.23,1.39,9.78,1.95c7.5,1.2,15.79,1.81,24.88,1.81h4.45c9.09,0,17.36-0.6,24.81-1.81c3.52-0.57,6.75-1.22,9.71-1.95
		l-20.93-20.93C458.41,429.35,453.87,429.79,448.82,429.92z"/>
	<path class="st0" d="M521.84,393.34c-0.37-2.58-1.22-5.5-2.53-8.77c-1.31-3.27-3.02-6.27-5.13-9.03c-2.11-2.75-5.04-5.5-8.79-8.25
		c-2.52-1.85-5.33-3.5-8.42-4.96l-20.71,20.71c2.88,1.6,5.24,3.53,7.06,5.78c1.87,2.32,3.14,4.56,3.79,6.7
		c0.66,2.15,0.98,4.43,0.98,6.83v1.81c0,3.09-0.58,6.02-1.76,8.77c-1.17,2.75-3.21,5.48-6.11,8.19c-0.96,0.89-2.09,1.72-3.37,2.49
		l20.78,20.78c2.83-1.41,5.45-2.97,7.82-4.71c3.8-2.79,6.72-5.59,8.79-8.38c2.06-2.79,3.75-5.85,5.06-9.15
		c1.31-3.31,2.16-6.25,2.53-8.83c0.38-2.58,0.56-5.24,0.56-7.99v-3.87C522.4,398.62,522.22,395.91,521.84,393.34z"/>
</g>
<circle class="st1" cx="446.6" cy="403.65" r="8.89"/>
</svg>
