<svg id="Camada_1" data-name="Camada 1" xmlns="http://www.w3.org/2000/svg" viewBox="0 0 530.38 389.86"><defs><style>.cls-1{fill:#fff;}.cls-2{fill:#e52421;}</style></defs><path class="cls-1" d="M248.62,370.9q-29,0-50.76-4.57t-33.49-11a57.82,57.82,0,0,1-18.7-15.71q-6.93-9.24-8.9-16.68a61.82,61.82,0,0,1-2-15.84v-2.64h63.58c1.39,18.88,15.13,28.32,52.28,28.32h14.15a164.73,164.73,0,0,0,25.41-1.56q12-1.56,17.53-4.45t7.32-5.88a13.32,13.32,0,0,0,1.83-7.07c0-3.85-1-6.88-3.14-9.12s-7-4.21-14.65-5.89-18.75-2.67-33.23-3l-19.18-.42-14.31-.3q-95-2.4-95-52.32v-2.16a51.86,51.86,0,0,1,2.35-16q2.35-7.32,9.42-14.64a57.75,57.75,0,0,1,18.45-12.36q11.37-5,30.74-8.28a275.65,275.65,0,0,1,45-3.24h18.06a292.63,292.63,0,0,1,47.09,3.36q20.41,3.36,32.58,8.64a63.88,63.88,0,0,1,19.88,13q7.71,7.68,10.6,15.24a45.33,45.33,0,0,1,2.87,16.2v2.4H311.16a22.56,22.56,0,0,0-1.44-4.92,20.76,20.76,0,0,0-4.32-5.4,26,26,0,0,0-8.9-5.52q-5.49-2.16-16.35-3.84a129.25,129.25,0,0,0-22.37-1.68h-9.09c-14.65,0-23.88.84-31.73,2.52s-12.6,3.44-14.26,5.28a10.91,10.91,0,0,0-2.48,7.56,10.34,10.34,0,0,0,2.74,7.44q2.76,2.88,13.09,5.28t29.17,2.64l14.33.21,18.37.27q54.43,1,78.63,13.56t24.2,39.48v3.36a61,61,0,0,1-2.35,17.64q-2.36,7.8-9.69,16t-19.49,13.68q-12.17,5.52-33.23,9t-49.32,3.48Z" transform="translate(-134.81 -186.1)"/><path class="cls-1" d="M413,189.43h60.82v64.89H604.37V189.43h60.82V367.57H604.37V297.42H473.84v70.15H413Z" transform="translate(-134.81 -186.1)"/><polyline class="cls-1" points="0 238.14 265.19 238.14 265.1 389.32 319.75 389.32 319.75 238.14 530.38 238.14 529.15 196.18 0 196.18"/><polygon class="cls-1" points="529.15 246.41 356.95 246.41 356.95 279.41 458.41 279.41 429.15 301.08 458.52 325.9 529.15 272.5 529.15 246.41"/><path class="cls-2" d="M555.48,541.66,588,516.18a254.18,254.18,0,0,1-29.68-24.43l-70.9,57.39v26.29H662.74V541.66Z" transform="translate(-134.81 -186.1)"/><path class="cls-1" d="M249.07,463c1.19,0,4.83,0,6.56,0a129.85,129.85,0,0,1,18.07,1.71l31.15-31.15c-4.07-.94-8.45-1.79-13.17-2.53a239.06,239.06,0,0,0-36.75-2.58h-6.61a243.22,243.22,0,0,0-37,2.58c-4.74.74-9.12,1.58-13.19,2.51l31,31A146.22,146.22,0,0,1,249.07,463Z" transform="translate(-134.81 -186.1)"/><path class="cls-1" d="M201.34,527.89a38.84,38.84,0,0,1-8.88-12.26,32.91,32.91,0,0,1-2.61-13v-2.3q0-19.62,17.36-28.93l-30.61-30.6A75.33,75.33,0,0,0,164,448.21a63.91,63.91,0,0,0-13.05,12.25A53.55,53.55,0,0,0,143.39,474a62.59,62.59,0,0,0-3.65,13,81.49,81.49,0,0,0-.84,12v5.75a81.9,81.9,0,0,0,.84,11.87,62,62,0,0,0,3.65,13.12,55.17,55.17,0,0,0,7.52,13.6,63.31,63.31,0,0,0,13.15,12.45,78.1,78.1,0,0,0,11.63,7l30.89-30.89A28.55,28.55,0,0,1,201.34,527.89Z" transform="translate(-134.81 -186.1)"/><path class="cls-1" d="M254.83,541.24c-1.48,0-4,0-5,0a131.64,131.64,0,0,1-21.93-2l-31.09,31.09c4.42,1.09,9.25,2.06,14.52,2.91a233.91,233.91,0,0,0,37,2.68h6.61a231.75,231.75,0,0,0,36.85-2.68c5.23-.84,10-1.81,14.43-2.9l-31.1-31.09A129.85,129.85,0,0,1,254.83,541.24Z" transform="translate(-134.81 -186.1)"/><path class="cls-1" d="M363.3,486.9a57.58,57.58,0,0,0-3.76-13,56.16,56.16,0,0,0-7.62-13.41,63.91,63.91,0,0,0-13.05-12.25,75.5,75.5,0,0,0-12.5-7.37L295.6,471.61a35.53,35.53,0,0,1,10.49,8.58,30.25,30.25,0,0,1,5.63,10,34.46,34.46,0,0,1,1.47,10.15V503a32.88,32.88,0,0,1-2.61,13,36.64,36.64,0,0,1-9.09,12.16,30.15,30.15,0,0,1-5,3.71l30.87,30.87a78.62,78.62,0,0,0,11.63-7,61.33,61.33,0,0,0,13-12.45,59.73,59.73,0,0,0,7.51-13.6,58.92,58.92,0,0,0,3.76-13.12,81.9,81.9,0,0,0,.84-11.87V499A83.34,83.34,0,0,0,363.3,486.9Z" transform="translate(-134.81 -186.1)"/><circle class="cls-2" cx="116.71" cy="316.12" r="13.2"/></svg>